Coordinates
version=1
nRows=38
nColumns=12
inDegrees=yes

Units are S.I. units (second, meters, Newtons, ...)
Angles are in degrees

endheader
time	SC_y	SC_z	SC_x	AC_y	AC_z	AC_x	GH_y	GH_z	GH_yy	EL_x	PS_y
       0.0              -35.37          36.09          12.17           57.2         -16.35          11.15          62.16          48.09         -164.3          119.1          86.51
   0.01849              -35.37          36.08          12.17           57.2         -16.35          11.15          62.16          48.08         -164.3          119.1           86.5
   0.03699              -35.36          36.08          12.18           57.2         -16.34          11.15          62.16          48.07         -164.3          119.1          86.49
   0.05548              -35.36          36.07          12.18          57.19         -16.34          11.15          62.17          48.06         -164.3          119.1          86.47
   0.07398              -35.36          36.07          12.19          57.19         -16.34          11.15          62.17          48.05         -164.3          119.1          86.46
   0.09247              -35.35          36.06          12.19          57.19         -16.33          11.15          62.18          48.04         -164.3          119.1          86.45
     0.111              -35.35          36.05           12.2          57.18         -16.33          11.15          62.19          48.03         -164.3          119.1          86.43
    0.1295              -35.35          36.05          12.21          57.18         -16.32          11.16          62.19          48.02         -164.3          119.1          86.41
     0.148              -35.34          36.04          12.22          57.18         -16.32          11.16           62.2           48.0         -164.4          119.1           86.4
    0.1665              -35.34          36.03          12.22          57.17         -16.31          11.16          62.21          47.99         -164.4          119.0          86.38
    0.1849              -35.33          36.02          12.23          57.17          -16.3          11.16          62.21          47.98         -164.4          119.0          86.36
    0.2034              -35.33          36.01          12.24          57.16          -16.3          11.16          62.22          47.96         -164.4          119.0          86.34
    0.2219              -35.32           36.0          12.25          57.16         -16.29          11.16          62.23          47.94         -164.4          119.0          86.32
    0.2404              -35.31          35.99          12.26          57.15         -16.28          11.16          62.24          47.93         -164.4          119.0          86.29
    0.2589               -35.3          35.98          12.28          57.15         -16.27          11.16          62.25          47.91         -164.4          119.0          86.26
    0.2774               -35.3          35.97          12.29          57.14         -16.27          11.16          62.27          47.88         -164.4          119.0          86.23
    0.2959              -35.29          35.95           12.3          57.13         -16.26          11.16          62.28          47.86         -164.4          119.0           86.2
    0.3144              -35.28          35.94          12.32          57.12         -16.24          11.17          62.29          47.84         -164.4          119.0          86.17
    0.3329              -35.27          35.92          12.34          57.11         -16.23          11.17          62.31          47.81         -164.4          119.0          86.13
    0.3514              -35.26           35.9          12.36           57.1         -16.22          11.17          62.32          47.78         -164.4          119.0          86.09
    0.3699              -35.25          35.88          12.38          57.09         -16.21          11.17          62.34          47.74         -164.4          119.0          86.05
    0.3884              -35.23          35.86           12.4          57.08         -16.19          11.17          62.36          47.71         -164.4          119.0           86.0
    0.4069              -35.22          35.84          12.42          57.07         -16.17          11.18          62.38          47.67         -164.4          119.0          85.94
    0.4254               -35.2          35.81          12.45          57.05         -16.15          11.18          62.41          47.62         -164.4          119.0          85.88
    0.4439              -35.18          35.78          12.48          57.04         -16.13          11.18          62.44          47.57         -164.4          119.0          85.81
    0.4624              -35.16          35.75          12.52          57.02         -16.11          11.19          62.47          47.52         -164.5          119.0          85.74
    0.4809              -35.14          35.71          12.55           57.0         -16.08          11.19           62.5          47.45         -164.5          119.0          85.65
    0.4994              -35.11          35.67           12.6          56.98         -16.05           11.2          62.54          47.38         -164.5          119.0          85.56
    0.5178              -35.08          35.62          12.65          56.95         -16.02           11.2          62.58           47.3         -164.5          119.0          85.45
    0.5363              -35.05          35.57           12.7          56.92         -15.98          11.21          62.63          47.21         -164.5          119.0          85.33
    0.5548              -35.01          35.51          12.76          56.89         -15.93          11.21          62.69          47.11         -164.5          119.0          85.19
    0.5733              -34.97          35.44          12.84          56.85         -15.88          11.22          62.75          46.99         -164.6          118.9          85.03
    0.5918              -34.92          35.36          12.92          56.81         -15.82          11.23          62.83          46.86         -164.6          118.9          84.84
    0.6103              -34.86          35.26          13.02          56.76         -15.76          11.24          62.91           46.7         -164.6          118.9          84.63
    0.6288              -34.79          35.15          13.13           56.7         -15.68          11.25          63.01          46.52         -164.7          118.9          84.38
    0.6473              -34.71          35.02          13.27          56.63         -15.58          11.26          63.13           46.3         -164.7          118.9          84.08
    0.6658              -34.62          34.87          13.43          56.54         -15.47          11.28          63.27          46.04         -164.8          118.8          83.73
    0.6843               -34.5          34.68          13.62          56.44         -15.34           11.3          63.44          45.73         -164.8          118.8          83.31
